REM DIRINDEX 1\2,1\3
REM DIRNAME folder01,folder02,folder03
TITLE ""
FILE "NextStage_4th-Part3-P193-1.mp3" MP3
  TRACK 01 AUDIO
    TITLE "0:"
    INDEX 01 00:00:00
  TRACK 02 AUDIO
    TITLE "3:cjc036_2505"
    INDEX 01 00:00:09
  TRACK 03 AUDIO
    TITLE "0:"
    INDEX 01 00:02:26
  TRACK 04 AUDIO
    TITLE "2:cjc036_2506"
    INDEX 01 00:02:45
  TRACK 05 AUDIO
    TITLE "0:"
    INDEX 01 00:05:52
  TRACK 06 AUDIO
    TITLE "3:cjc036_2507"
    INDEX 01 00:06:33
  TRACK 07 AUDIO
    TITLE "0:"
    INDEX 01 00:08:56
  TRACK 08 AUDIO
    TITLE "2:cjc036_2508"
    INDEX 01 00:09:02
  TRACK 09 AUDIO
    TITLE "0:"
    INDEX 01 00:12:73
  TRACK 10 AUDIO
    TITLE "3:cjc036_2509"
    INDEX 01 00:13:53
  TRACK 11 AUDIO
    TITLE "0:"
    INDEX 01 00:15:58
  TRACK 12 AUDIO
    TITLE "2:cjc036_2510"
    INDEX 01 00:16:04
  TRACK 13 AUDIO
    TITLE "0:"
    INDEX 01 00:18:70
  TRACK 14 AUDIO
    TITLE "3:cjc036_2511"
    INDEX 01 00:19:56
  TRACK 15 AUDIO
    TITLE "0:"
    INDEX 01 00:22:05
  TRACK 16 AUDIO
    TITLE "2:cjc036_2512"
    INDEX 01 00:22:25
  TRACK 17 AUDIO
    TITLE "0:"
    INDEX 01 00:27:22
  TRACK 18 AUDIO
    TITLE "3:cjc036_2513"
    INDEX 01 00:28:02
  TRACK 19 AUDIO
    TITLE "0:"
    INDEX 01 00:30:28
  TRACK 20 AUDIO
    TITLE "2:cjc036_2514"
    INDEX 01 00:30:48
  TRACK 21 AUDIO
    TITLE "0:"
    INDEX 01 00:36:19
  TRACK 22 AUDIO
    TITLE "3:cjc036_2515"
    INDEX 01 00:37:03
  TRACK 23 AUDIO
    TITLE "0:"
    INDEX 01 00:39:29
  TRACK 24 AUDIO
    TITLE "2:cjc036_2516"
    INDEX 01 00:39:45
  TRACK 25 AUDIO
    TITLE "0:"
    INDEX 01 00:45:47
  TRACK 26 AUDIO
    TITLE "3:cjc036_2517"
    INDEX 01 00:46:25
  TRACK 27 AUDIO
    TITLE "0:"
    INDEX 01 00:48:49
  TRACK 28 AUDIO
    TITLE "2:cjc036_2518"
    INDEX 01 00:48:71
  TRACK 29 AUDIO
    TITLE "0:"
    INDEX 01 00:52:10
  TRACK 30 AUDIO
    TITLE "3:cjc036_2519"
    INDEX 01 00:52:67
  TRACK 31 AUDIO
    TITLE "0:"
    INDEX 01 00:55:20
  TRACK 32 AUDIO
    TITLE "2:cjc036_2520"
    INDEX 01 00:55:38
  TRACK 33 AUDIO
    TITLE "0:"
    INDEX 01 00:59:43
  TRACK 34 AUDIO
    TITLE "3:cjc036_2521"
    INDEX 01 01:00:31
  TRACK 35 AUDIO
    TITLE "0:"
    INDEX 01 01:02:55
  TRACK 36 AUDIO
    TITLE "2:cjc036_2522"
    INDEX 01 01:03:06
  TRACK 37 AUDIO
    TITLE "0:"
    INDEX 01 01:05:28
  TRACK 38 AUDIO
    TITLE "3:cjc036_2523"
    INDEX 01 01:06:10
  TRACK 39 AUDIO
    TITLE "0:"
    INDEX 01 01:08:36
  TRACK 40 AUDIO
    TITLE "2:cjc036_2524"
    INDEX 01 01:08:56
  TRACK 41 AUDIO
    TITLE "0:"
    INDEX 01 01:11:47
  TRACK 42 AUDIO
    TITLE "3:cjc036_2525"
    INDEX 01 01:12:32
  TRACK 43 AUDIO
    TITLE "0:"
    INDEX 01 01:14:41
  TRACK 44 AUDIO
    TITLE "2:cjc036_2526"
    INDEX 01 01:14:63
  TRACK 45 AUDIO
    TITLE "0:"
    INDEX 01 01:19:52
  TRACK 46 AUDIO
    TITLE "3:cjc036_2527"
    INDEX 01 01:20:32
  TRACK 47 AUDIO
    TITLE "0:"
    INDEX 01 01:22:58
  TRACK 48 AUDIO
    TITLE "2:cjc036_2528"
    INDEX 01 01:22:70
  TRACK 49 AUDIO
    TITLE "0:"
    INDEX 01 01:27:22
  TRACK 50 AUDIO
    TITLE "3:cjc036_2529"
    INDEX 01 01:28:02
  TRACK 51 AUDIO
    TITLE "0:"
    INDEX 01 01:30:07
  TRACK 52 AUDIO
    TITLE "3:cjc036_2530"
    INDEX 01 01:30:32
  TRACK 53 AUDIO
    TITLE "0:"
    INDEX 01 01:31:20
  TRACK 54 AUDIO
    TITLE "2:cjc036_2531"
    INDEX 01 01:31:41
  TRACK 55 AUDIO
    TITLE "0:"
    INDEX 01 01:34:40
  TRACK 56 AUDIO
    TITLE "3:cjc036_2532"
    INDEX 01 01:34:63
  TRACK 57 AUDIO
    TITLE "0:"
    INDEX 01 01:35:55
  TRACK 58 AUDIO
    TITLE "2:cjc036_2533"
    INDEX 01 01:35:61
  TRACK 59 AUDIO
    TITLE "0:"
    INDEX 01 01:38:20
  TRACK 60 AUDIO
    TITLE "3:cjc036_2534"
    INDEX 01 01:39:02
  TRACK 61 AUDIO
    TITLE "0:"
    INDEX 01 01:41:28
  TRACK 62 AUDIO
    TITLE "2:cjc036_2535"
    INDEX 01 01:41:50
  TRACK 63 AUDIO
    TITLE "0:"
    INDEX 01 01:44:32
  TRACK 64 AUDIO
    TITLE "3:cjc036_2536"
    INDEX 01 01:45:14
  TRACK 65 AUDIO
    TITLE "0:"
    INDEX 01 01:47:31
  TRACK 66 AUDIO
    TITLE "2:cjc036_2537"
    INDEX 01 01:47:56
  TRACK 67 AUDIO
    TITLE "0:"
    INDEX 01 01:53:70
  TRACK 68 AUDIO
    TITLE "3:cjc036_2538"
    INDEX 01 01:54:60
  TRACK 69 AUDIO
    TITLE "0:"
    INDEX 01 01:57:04
  TRACK 70 AUDIO
    TITLE "2:cjc036_2539"
    INDEX 01 01:57:29
  TRACK 71 AUDIO
    TITLE "0:"
    INDEX 01 02:03:59
